<?xml version="1.0" encoding="UTF-8"?>
<svg width="543px" height="200px" viewBox="0 0 543 200" version="1.1" xmlns="http://www.w3.org/2000/svg" xmlns:xlink="http://www.w3.org/1999/xlink">
    <!-- Generator: Sketch 57.1 (83088) - https://sketch.com -->
    <title>theory database</title>
    <desc>Created with Sketch.</desc>
    <defs>
        <linearGradient x1="75.3288186%" y1="100%" x2="14.6834195%" y2="13.7773727%" id="linearGradient-1">
            <stop stop-color="#23328F" offset="0%"></stop>
            <stop stop-color="#2AD5FF" offset="100%"></stop>
        </linearGradient>
    </defs>
    <g id="theory-database" stroke="none" stroke-width="1" fill="none" fill-rule="evenodd">
        <g id="Group-8" transform="translate(20.930233, 5.813953)" fill-rule="nonzero">
            <g id="Group-4" fill="url(#linearGradient-1)">
                <path d="M96.2790698,1.42108547e-14 C106.265857,1.42108547e-14 114.693435,15.0579503 119.91042,38.3901709 C140.034719,25.7574317 156.57051,21.1723792 163.627743,28.1959334 C170.769653,35.3038093 165.983319,52.0528326 152.969865,72.3846108 C176.983723,77.578539 192.55814,86.1224605 192.55814,96.2790698 C192.55814,106.435679 176.983723,114.979601 152.970552,120.173766 C165.983355,140.50543 170.769627,157.254356 163.627743,164.362206 C156.570393,171.385877 140.034171,166.800556 119.910133,154.167744 C114.693411,177.500231 106.265843,192.55814 96.2790698,192.55814 C86.1265325,192.55814 77.5853902,176.996209 72.3906223,152.99943 C51.4399904,166.512542 34.1081929,171.598328 26.8373734,164.362206 C19.6478733,157.206967 24.5461133,140.281667 37.7564887,119.766615 C14.7853019,114.540014 0,106.17503 0,96.2790698 C0,86.3831092 14.7853019,78.0181259 37.7556333,72.7908553 C24.5459865,52.2760347 19.6479663,35.3510796 26.8373734,28.1959334 C34.1080773,20.9599265 51.4394388,26.0454362 72.3897981,39.5580897 C77.5852096,15.5622595 86.1264252,1.42108547e-14 96.2790698,1.42108547e-14 Z M95.2329538,136.056222 L94.374684,136.767437 C88.1547171,141.905956 82.0452607,146.507159 76.1797122,150.490399 C80.8829703,173.434869 88.3574485,188.372093 96.2790698,188.372093 C104.058248,188.372093 111.406219,173.967229 116.120777,151.720393 C109.432133,147.288657 102.401653,142.025724 95.2329538,136.056222 Z M148.522614,121.079116 L148.293861,121.122655 C140.947683,122.518671 132.915099,123.617266 124.375937,124.374666 C123.567346,133.484611 122.370999,142.01731 120.839563,149.75525 C139.847999,161.988432 155.165725,166.877976 160.674837,161.395151 C166.243661,155.852868 161.142122,140.309683 148.522614,121.079116 Z M42.1822785,120.715351 L41.8622981,121.201442 C29.301399,140.375579 24.2332678,155.864624 29.7902795,161.395151 C35.4777511,167.055484 51.619233,161.660958 71.482408,148.544564 C70.0640028,141.129979 68.9491555,133.011324 68.1832469,124.374565 C58.8284037,123.544977 50.0833333,122.306062 42.1822785,120.715351 Z M120.107357,124.721073 L119.447828,124.769645 C115.507056,125.052361 111.469931,125.26378 107.353021,125.39987 C104.395106,128.138495 101.441382,130.771057 98.5054799,133.289427 C104.865564,138.540887 111.09344,143.215884 117.017229,147.229669 C118.311431,140.322903 119.360768,132.762805 120.107357,124.721073 Z M72.44914,124.721476 L72.4595417,124.814955 C73.1598276,132.330167 74.124647,139.423632 75.306831,145.954777 C80.6693048,142.236424 86.2617682,137.994048 91.9601336,133.289148 C88.995554,130.746561 86.0126626,128.08722 83.0256849,125.319836 C79.4317618,125.177518 75.9028839,124.976943 72.44914,124.721476 Z M89.4690199,125.513159 L90.1408143,126.113051 C91.8431264,127.628896 93.5414763,129.107116 95.2326833,130.546137 C97.1323851,128.929644 99.0411316,127.26368 100.954404,125.550481 C99.4058408,125.570633 97.8469003,125.581395 96.2790698,125.581395 C93.9892228,125.581395 91.7183393,125.558439 89.4690199,125.513159 Z M96.2790698,71.1627907 C92.3718046,71.1627907 88.5204329,71.2335242 84.7394983,71.370111 C82.27466,73.6710601 79.8076069,76.0477817 77.3488761,78.4947873 C75.3077431,80.5261864 73.3152934,82.5632852 71.374253,84.6006237 C71.2352795,88.4254547 71.1627907,92.323622 71.1627907,96.2790698 C71.1627907,100.234114 71.2352647,104.13189 71.3751512,107.957313 C73.3152934,109.994854 75.3077431,112.031953 77.3488761,114.063352 C79.8072318,116.509985 82.2739074,118.886354 84.7393228,121.187719 C88.5197544,121.324603 92.3714604,121.395349 96.2790698,121.395349 C99.442046,121.395349 102.568395,121.348997 105.650401,121.258881 C108.140526,118.935173 110.632629,116.53512 113.11624,114.063352 C115.925136,111.267852 118.641836,108.461558 121.259237,105.658699 C121.348906,102.574489 121.395349,99.4451289 121.395349,96.2790698 C121.395349,93.112885 121.348902,89.9834021 121.258606,86.8983597 C118.64119,84.0959146 115.924802,81.2899553 113.11624,78.4947873 C110.632564,76.0229556 108.140396,73.6228412 105.649615,71.2993352 C102.568395,71.209143 99.442046,71.1627907 96.2790698,71.1627907 Z M121.008311,112.012181 L120.532495,112.504581 C119.071269,114.01443 117.583108,115.523651 116.069139,117.0304 C114.715433,118.37765 113.359746,119.70436 112.003401,121.009727 C114.873568,120.866369 117.697988,120.686063 120.470804,120.470017 C120.685888,117.700153 120.866044,114.878607 121.008311,112.012181 Z M71.6702698,114.286785 L71.7323309,115.326748 C71.8372126,117.059613 71.9559712,118.774697 72.0880971,120.47048 C74.1438876,120.630255 76.2288268,120.770832 78.339444,120.89084 C77.0236781,119.624393 75.7088955,118.337058 74.3959773,117.0304 C73.4778325,116.116634 72.5691796,115.201959 71.6702698,114.286785 Z M58.0441237,99.5333622 L57.7411989,99.8982182 C52.8982002,105.727017 48.5481665,111.441607 44.7581822,116.907635 C51.8171667,118.252833 59.5717107,119.339864 67.8349871,120.107137 C67.5849091,116.705627 67.38658,113.231127 67.2441057,109.694497 C64.0330093,106.297073 60.9622533,102.903422 58.0441237,99.5333622 Z M132.420451,99.5336056 L131.895126,100.139026 C129.805644,102.539079 127.639267,104.950442 125.400613,107.365554 C125.256783,111.70821 125.029144,115.962062 124.722431,120.107663 C132.268599,119.406532 139.390349,118.439222 145.945751,117.252942 C142.02166,111.568819 137.48788,105.611685 132.420451,99.5336056 Z M150.47454,76.1777783 L150.096347,76.7357825 C145.822461,83.0180758 140.82234,89.5880538 135.19786,96.278955 C140.989212,103.168441 146.1186,109.929691 150.474816,116.380668 C173.427955,111.678629 188.372093,104.202524 188.372093,96.2790698 C188.372093,88.3556152 173.427955,80.8795107 150.47454,76.1777783 Z M40.2517057,76.5632714 L39.6724632,76.6882828 C18.0891915,81.4102504 4.18604651,88.636566 4.18604651,96.2790698 C4.18604651,103.989628 18.3379012,111.276553 40.2508647,115.995403 C44.5514019,109.660018 49.5915094,103.031058 55.2674487,96.2789552 C49.5914367,89.5267426 44.5512949,82.8977273 40.2517057,76.5632714 Z M67.0498609,89.2308196 L66.9997921,89.286595 C64.8609685,91.6253498 62.7928439,93.9588872 60.7995598,96.2789129 C62.8081514,98.6170904 64.8936637,100.969687 67.0509944,103.327519 C67.0013566,101.000725 66.9767442,98.6500633 66.9767442,96.2790698 C66.9767442,93.9083647 67.0013506,91.557986 67.0498609,89.2308196 Z M125.549642,91.5889434 L125.559598,92.4228602 C125.574092,93.7019192 125.581395,94.9874778 125.581395,96.2790698 C125.581395,97.8516146 125.570569,99.4152158 125.54912,100.969031 C126.954011,99.4013099 128.326402,97.8371727 129.665037,96.2791312 C128.327508,94.7215154 126.954832,93.157021 125.549642,91.5889434 Z M67.8365487,72.450384 L67.2080897,72.5099176 C59.1789522,73.2735422 51.6376402,74.3394548 44.7569647,75.6496679 C48.6268674,81.2300629 53.0794465,87.0690257 58.0442962,93.0240911 C60.9623657,89.6545861 64.0332865,86.2607592 67.2440306,82.8643221 C67.3865366,79.3272728 67.5849146,75.8523781 67.8365487,72.450384 Z M124.72161,72.4508593 L124.767841,73.0843164 C125.051157,77.029139 125.263042,81.0705425 125.39944,85.1919175 C127.827654,87.8109348 130.169743,90.4248763 132.420993,93.0247773 C137.488368,86.9465143 142.022088,80.9892594 145.946276,75.3049675 C139.39006,74.1188656 132.267971,73.1515225 124.72161,72.4508593 Z M112.004184,71.5494319 L112.302207,71.8363392 C113.558845,73.0487453 114.814843,74.2794247 116.069139,75.5277392 C117.748135,77.1987283 119.395389,78.8727573 121.009366,80.5473115 C120.866857,77.6802593 120.686494,74.8581198 120.470489,72.0875125 C117.697988,71.8720769 114.873568,71.6917708 112.004184,71.5494319 Z M78.3387487,71.6668184 L77.0295884,71.7446127 C75.3652366,71.8464633 73.7173693,71.9611174 72.0873353,72.0881223 C71.9296031,74.12185 71.7903338,76.1839908 71.6711823,78.2712872 C72.5691796,77.3561809 73.4778325,76.4415055 74.3959773,75.5277392 C75.7087732,74.2212038 77.0234331,72.9339867 78.3387487,71.6668184 Z M29.7902795,31.1629888 C24.1863121,36.7402472 29.3878072,52.4450312 42.1823129,71.8435366 C50.0828787,70.2521253 58.8286337,69.0131088 68.1822027,68.183474 C68.9401021,59.6515612 70.0373841,51.6257602 71.4315793,44.2849639 L71.482408,44.0135756 C51.619233,30.8971816 35.4777511,25.5026552 29.7902795,31.1629888 Z M120.840254,42.8024666 C122.371075,50.540859 123.56701,59.0735942 124.374814,68.1825753 C133.004267,68.9487822 141.115384,70.0624495 148.523767,71.479314 C161.142245,52.2480839 166.243594,36.7052051 160.674837,31.1629888 C155.165725,25.6801638 139.847999,30.5697079 120.840254,42.8024666 Z M75.306695,46.6027629 L75.2751229,46.7789626 C74.1024884,53.2887882 73.1455563,60.3543038 72.45082,67.8369522 C75.9035653,67.5811581 79.4321087,67.3806076 83.0245289,67.2376744 C86.0121181,64.4712515 88.9949687,61.8117576 91.9596458,59.2687044 C86.2612762,54.5636117 80.6691341,50.3213648 75.306695,46.6027629 Z M117.01676,45.3301216 L116.593183,45.6165672 C110.796433,49.5654705 104.713823,54.1425258 98.5056681,59.2683661 C101.441288,61.7867389 104.394921,64.4193423 107.352722,67.157849 C111.700489,67.3019808 115.958985,67.5296951 120.108999,67.8366633 C119.360715,59.7956373 118.311291,52.2360186 117.01676,45.3301216 Z M95.231917,62.0115638 L95.0531402,62.1648976 C93.199348,63.7448295 91.3371138,65.3717651 89.4706228,67.0436325 C91.7190131,66.9996939 93.9895625,66.9767442 96.2790698,66.9767442 C97.8469003,66.9767442 99.4058408,66.9875062 100.955057,67.0088269 C99.0409627,65.2944096 97.1319319,63.6282483 95.231917,62.0115638 Z M96.2790698,4.18604651 C88.3574102,4.18604651 80.8828979,19.1234148 76.1809741,42.0680013 C82.3152792,46.2344014 88.7166313,51.0763204 95.2321624,56.5019171 C102.40129,50.5326876 109.431961,45.2695974 116.121141,40.8359977 C111.406144,18.5907636 104.058208,4.18604651 96.2790698,4.18604651 Z" id="Combined-Shape"></path>
            </g>
            <g id="Theory-Database" transform="translate(216.474391, 28.386900)">
                <path d="M0,19.8519887 L1.16776404,0.686920023 L42.3829654,0.686920023 L43.3446534,19.8519887 L40.9404334,19.8519887 C39.4292017,8.49485416 35.353517,2.81637209 28.7132569,2.81637209 C27.5225896,2.81637209 26.6639482,3.03389459 26.1373069,3.46894611 C25.6106655,3.90399764 25.3473488,4.69394776 25.3473488,5.83882019 L25.3473488,46.4357935 C25.3473488,48.0386149 26.3548215,48.8400136 28.3697969,48.8400136 L33.5216971,48.8400136 L33.5216971,51.4503097 L9.89164833,51.4503097 L9.89164833,48.8400136 L15.7304685,48.8400136 C17.287495,48.8400136 18.0659966,48.1302034 18.0659966,46.7105615 L18.0659966,5.49536018 C18.0659966,3.75515409 16.9669356,2.8850641 14.7687805,2.8850641 C8.26590509,2.8850641 4.19022038,8.54064906 2.54160408,19.8519887 L0,19.8519887 Z M45.1993375,3.22852411 L45.1993375,0.686920023 L57.4265139,-7.81597009e-14 L57.4265139,24.8665048 C60.8153363,20.5159896 64.7078442,18.3407646 69.1041543,18.3407646 C72.3097971,18.3407646 74.8055815,19.4169285 76.5915825,21.5692887 C78.3775835,23.7216489 79.2705706,26.789861 79.2705706,30.774017 L79.2705706,46.0236415 C79.2705706,47.9012323 80.3009403,48.8400136 82.3617107,48.8400136 L85.1093908,48.8400136 L85.1093908,51.4503097 L67.7303142,51.4503097 L67.7303142,48.8400136 L69.7223823,48.8400136 C72.2868965,48.8400136 73.5691344,47.9012323 73.5691344,46.0236415 L73.5691344,30.774017 C73.5691344,28.1637079 72.939464,26.0915199 71.6801044,24.5573908 C70.4207447,23.0232618 68.6920133,22.2562087 66.4938582,22.2562087 C64.1125235,22.2562087 62.0059899,23.2636814 60.174194,25.2786568 C58.3423981,27.2936323 57.4265139,29.835211 57.4265139,32.9034691 L57.4265139,45.6801815 C57.4265139,46.8708488 57.6554849,47.6951446 58.1134339,48.1530936 C58.5713829,48.6110426 59.3498845,48.8400136 60.448962,48.8400136 L63.1966421,48.8400136 L63.1966421,51.4503097 L46.2984095,51.4503097 L46.2984095,48.8400136 L48.1530936,48.8400136 C50.5802231,48.8400136 51.7937697,47.7867468 51.7937697,45.6801815 L51.7937697,7.35004424 C51.7937697,4.60235041 50.3741492,3.22852411 47.5348656,3.22852411 L45.1993375,3.22852411 Z M114.715644,41.6960454 L116.98248,42.6577334 C113.639452,49.1606088 108.808163,52.4119977 102.488467,52.4119977 C98.1379522,52.4119977 94.508761,50.8664431 91.600785,47.7752876 C88.6928091,44.684132 87.2388429,40.6885872 87.2388429,35.7885332 C87.2388429,30.6137098 88.6584634,26.4006425 91.497747,23.1492048 C94.3370306,19.8977671 97.9318761,18.2720726 102.282391,18.2720726 C106.678702,18.2720726 110.193407,19.8176272 112.826614,22.9087828 C115.45982,25.9999383 116.776404,30.2702484 116.776404,35.7198412 L93.6958911,35.7198412 C93.6958911,37.5058422 93.8103766,39.0857424 94.0393511,40.4595893 C94.2683256,41.8334363 94.6575764,43.0240857 95.2071151,44.0315735 C97.0847059,47.5577805 99.9926383,49.3208576 103.930999,49.3208576 C108.418899,49.3208576 112.013745,46.779279 114.715644,41.6960454 Z M93.6958911,33.1095451 L107.640368,33.1095451 C109.380574,33.1095451 110.250664,31.9646898 110.250664,29.674945 C110.250664,27.1104307 109.483611,24.9237572 107.949482,23.1148588 C106.415353,21.3059603 104.549238,20.4015247 102.351083,20.4015247 C99.7865691,20.4015247 97.7029326,21.5234828 96.1001112,23.7674328 C94.4972898,26.0113827 93.6958911,29.125389 93.6958911,33.1095451 Z M134.8424,18.2720726 C139.238711,18.2720726 142.890799,19.8519729 145.798775,23.0118208 C148.706751,26.1716687 150.160717,30.3160447 150.160717,35.4450732 C150.160717,40.4825119 148.672405,44.5696451 145.695737,47.7065956 C142.719068,50.843546 139.078429,52.4119977 134.773708,52.4119977 C130.468988,52.4119977 126.885591,50.8206489 124.02341,47.6379036 C121.161229,44.4551582 119.73016,40.368025 119.73016,35.3763812 C119.73016,30.3847374 121.14978,26.2861556 123.989064,23.0805128 C126.828348,19.87487 130.44609,18.2720726 134.8424,18.2720726 Z M134.8424,20.7449847 C132.048912,20.7449847 129.885135,21.9699798 128.351006,24.4200068 C126.816877,26.8700338 126.049824,30.4076365 126.049824,35.0329212 C126.049824,39.9329752 126.805429,43.6423062 128.31666,46.1610255 C129.827892,48.6797449 132.026014,49.9390856 134.911092,49.9390856 C137.796171,49.9390856 140.005742,48.6568478 141.539871,46.0923335 C143.074,43.5278193 143.841053,39.7955911 143.841053,34.8955372 C143.841053,30.2702525 143.051103,26.7555469 141.471179,24.3513148 C139.891255,21.9470827 137.681684,20.7449847 134.8424,20.7449847 Z M152.496245,21.7066727 L152.496245,19.2337606 L164.036501,18.6842246 L164.036501,31.667013 C165.318759,27.3164978 166.829967,24.0651089 168.570174,21.9127487 C170.31038,19.7603886 172.462708,18.6842246 175.027222,18.6842246 C176.767428,18.6842246 178.152703,19.2223066 179.183088,20.2984867 C180.213473,21.3746668 180.728658,22.85153 180.728658,24.7291208 C180.728658,26.0113779 180.385201,27.0646448 179.698278,27.8889529 C179.011354,28.7132611 178.118367,29.125409 177.01929,29.125409 C176.011802,29.125409 175.198955,28.7705038 174.580724,28.0606829 C173.962493,27.350862 173.653382,26.4235293 173.653382,25.2786568 C173.653382,24.6375283 173.813661,23.9735122 174.134226,23.2865888 C174.45479,22.5996653 174.61507,22.1875174 174.61507,22.0501327 C174.61507,21.9585429 174.523481,21.8669545 174.340302,21.7753647 C174.294507,21.7753647 174.180021,21.7524676 173.996842,21.7066727 C172.027661,21.7066727 170.024164,23.618581 167.986292,27.4424549 C165.948419,31.2663288 164.929497,35.3076679 164.929497,39.5665933 L164.929497,46.4357935 C164.929497,48.0386149 166.143044,48.8400136 168.570174,48.8400136 L172.691694,48.8400136 L172.691694,51.4503097 L152.702321,51.4503097 L152.702321,48.8400136 L155.862153,48.8400136 C158.106103,48.8400136 159.228061,48.1073062 159.228061,46.6418695 L159.228061,26.1716529 C159.228061,23.1949845 157.922926,21.7066727 155.312617,21.7066727 L152.496245,21.7066727 Z M182.85811,21.6379807 L182.85811,19.2337606 L198.245119,19.2337606 L198.245119,21.6379807 L196.046974,21.6379807 C194.215179,21.6379807 193.299294,22.2562026 193.299294,23.4926648 C193.299294,23.859024 193.367986,24.2253776 193.50537,24.5917368 L202.504023,43.8941894 L209.167147,27.8889529 C209.625096,26.8356703 209.854067,25.7137121 209.854067,24.5230448 C209.854067,22.5996591 208.205475,21.6379807 204.908243,21.6379807 L204.908243,19.2337606 L218.234491,19.2337606 L218.234491,21.6379807 C215.807362,21.6379807 214.067182,22.782836 213.013899,25.0725808 L201.130183,52.7554577 C199.298387,56.9685883 197.397927,60.0940431 195.428746,62.1319161 C193.459566,64.169789 191.146958,65.1887102 188.490854,65.1887102 C186.750648,65.1887102 185.365373,64.7193195 184.334988,63.7805241 C183.304603,62.8417287 182.789418,61.6854249 182.789418,60.311578 C182.789418,59.2125005 183.08708,58.3424105 183.682414,57.7012819 C184.277748,57.0601533 185.079146,56.7395939 186.086634,56.7395939 C187.002532,56.7395939 187.735239,57.0143591 188.284778,57.5638979 C188.834317,58.1134367 189.109082,58.8232469 189.109082,59.69335 L188.903006,61.41065 C188.903006,62.0059837 189.26936,62.3036461 190.002078,62.3036461 C191.788079,62.3036461 193.436671,61.2732763 194.947902,59.212506 C195.818005,58.0218386 197.352112,55.2054947 199.550267,50.7633897 L187.32309,24.5917368 C186.865141,23.5842491 186.304162,22.8744388 185.640136,22.4622847 C184.97611,22.0501307 184.048777,21.7753654 182.85811,21.6379807 Z" id="Theory" fill="#18B4EB"></path>
                <path d="M0.412152014,86.2972161 L0.412152014,83.68692 L26.6524969,83.68692 C29.7665499,83.68692 32.399717,84.0418252 34.5520771,84.7516461 C36.7044373,85.461467 38.8796623,86.8467418 41.0778174,88.9075122 C46.2068458,93.7617713 48.7713216,100.447726 48.7713216,108.965577 C48.7713216,116.201171 47.0654873,122.017035 43.6537674,126.413345 C40.2420476,130.809656 35.4680012,133.397028 29.331485,134.175542 C28.6445615,134.267131 27.7401259,134.335823 26.6181509,134.381618 C25.4961759,134.427413 24.5917402,134.45031 23.9048168,134.45031 L0.412152014,134.45031 L0.412152014,131.840014 L5.22059217,131.840014 C7.41874724,131.840014 8.51780828,131.038615 8.51780828,129.435794 L8.51780828,88.5640522 C8.51780828,87.0528206 7.55612987,86.2972161 5.63274419,86.2972161 L0.412152014,86.2972161 Z M24.6604288,86.2972161 L18.8903006,86.2972161 C16.8295303,86.2972161 15.7991605,87.1215119 15.7991605,88.7701282 L15.7991605,129.367102 C15.7991605,131.015718 17.0585013,131.840014 19.5772206,131.840014 L23.9048168,131.840014 C29.7207687,131.840014 33.9338361,130.065488 36.5441452,126.516383 C39.1544543,122.967279 40.4595893,117.391834 40.4595893,109.789881 C40.4595893,101.729979 39.1773514,95.7996288 36.6128372,91.9986523 C34.048323,88.1976758 30.0642267,86.2972161 24.6604288,86.2972161 Z M59.762042,106.904817 C59.762042,107.087996 60.1512928,107.843601 60.929806,109.171653 C61.3419601,109.858576 61.548034,110.476798 61.548034,111.026337 C61.548034,113.316082 60.3573846,114.460937 57.9760499,114.460937 C56.7853826,114.460937 55.8122556,114.106032 55.0566398,113.396211 C54.301024,112.68639 53.9232218,111.667469 53.9232218,110.339417 C53.9232218,107.958082 55.2512539,105.862997 57.9073579,104.054099 C60.5634619,102.2452 63.8835422,101.340765 67.8676982,101.340765 C71.4854951,101.340765 74.3361847,102.130715 76.4198525,103.710639 C78.5035203,105.290563 79.5453386,107.339854 79.5453386,109.858573 L79.5453386,127.512417 C79.5453386,130.489086 80.4612228,131.977398 82.2930187,131.977398 C82.7967626,131.977398 83.2661532,131.897258 83.7012048,131.736976 C84.1362563,131.576693 84.6056469,131.313377 85.1093908,130.947018 L86.4145389,132.801702 C84.7659226,134.541908 82.9341541,135.411998 80.9191787,135.411998 C77.7593308,135.411998 75.4925174,133.488641 74.1186704,129.64187 C72.103695,131.748435 70.363515,133.190952 68.8980783,133.969466 C67.1120773,134.931159 64.9368523,135.411998 62.3723381,135.411998 C59.2124902,135.411998 56.7510514,134.725085 54.9879478,133.351238 C53.2248443,131.977391 52.3433057,130.145622 52.3433057,127.855877 C52.3433057,124.60444 54.2323169,121.845339 58.0103959,119.578491 C61.7884749,117.311644 67.0662577,115.788986 73.8439024,115.010473 L73.8439024,110.202033 C73.8439024,108.324442 73.1455407,106.790336 71.7487964,105.599669 C70.352052,104.409001 68.6004235,103.813677 66.4938582,103.813677 C64.7078572,103.813677 63.1394055,104.168582 61.788456,104.878403 C60.4375066,105.588224 59.762042,106.263688 59.762042,106.904817 Z M73.8439024,121.948365 L73.8439024,117.346001 C68.5316944,118.078719 64.6735322,119.189229 62.2693001,120.677563 C59.865068,122.165897 58.6629699,124.329674 58.6629699,127.168957 C58.6629699,128.909164 59.1323606,130.271541 60.071156,131.256132 C61.0099514,132.240722 62.2807407,132.73301 63.8835621,132.73301 C66.5396661,132.73301 68.8637223,131.714088 70.8558003,129.676216 C72.8478784,127.638343 73.8439024,125.062418 73.8439024,121.948365 Z M88.5439909,105.393593 L88.5439909,102.989373 C94.5431225,101.981885 97.5426432,97.3795668 97.5426432,89.1822802 L99.8781713,89.1822802 L99.8781713,102.233761 L110.319356,102.233761 L110.319356,105.393593 L99.8781713,105.393593 L99.8781713,126.069885 C99.8781713,127.810092 100.290319,129.183918 101.114627,130.191406 C101.938935,131.198893 103.083791,131.70263 104.549227,131.70263 C106.335228,131.70263 107.7434,130.901231 108.773786,129.29841 C109.804171,127.695588 110.319356,125.360083 110.319356,122.291825 L112.654884,122.291825 C112.654884,126.413366 111.750448,129.561718 109.94155,131.736976 C108.132651,133.912233 105.694109,134.999846 102.625851,134.999846 C100.015542,134.999846 97.9548028,134.290035 96.4435712,132.870394 C94.9323396,131.450752 94.1767351,129.481601 94.1767351,126.962881 L94.1767351,105.393593 L88.5439909,105.393593 Z M123.16476,106.904817 C123.16476,107.087996 123.554011,107.843601 124.332524,109.171653 C124.744678,109.858576 124.950752,110.476798 124.950752,111.026337 C124.950752,113.316082 123.760103,114.460937 121.378768,114.460937 C120.188101,114.460937 119.214974,114.106032 118.459358,113.396211 C117.703742,112.68639 117.32594,111.667469 117.32594,110.339417 C117.32594,107.958082 118.653972,105.862997 121.310076,104.054099 C123.96618,102.2452 127.28626,101.340765 131.270416,101.340765 C134.888213,101.340765 137.738903,102.130715 139.822571,103.710639 C141.906238,105.290563 142.948057,107.339854 142.948057,109.858573 L142.948057,127.512417 C142.948057,130.489086 143.863941,131.977398 145.695737,131.977398 C146.199481,131.977398 146.668871,131.897258 147.103923,131.736976 C147.538974,131.576693 148.008365,131.313377 148.512109,130.947018 L149.817257,132.801702 C148.168641,134.541908 146.336872,135.411998 144.321897,135.411998 C141.162049,135.411998 138.895235,133.488641 137.521389,129.64187 C135.506413,131.748435 133.766233,133.190952 132.300796,133.969466 C130.514795,134.931159 128.33957,135.411998 125.775056,135.411998 C122.615208,135.411998 120.153769,134.725085 118.390666,133.351238 C116.627562,131.977391 115.746024,130.145622 115.746024,127.855877 C115.746024,124.60444 117.635035,121.845339 121.413114,119.578491 C125.191193,117.311644 130.468976,115.788986 137.246621,115.010473 L137.246621,110.202033 C137.246621,108.324442 136.548259,106.790336 135.151514,105.599669 C133.75477,104.409001 132.003142,103.813677 129.896576,103.813677 C128.110575,103.813677 126.542124,104.168582 125.191174,104.878403 C123.840225,105.588224 123.16476,106.263688 123.16476,106.904817 Z M137.246621,121.948365 L137.246621,117.346001 C131.934412,118.078719 128.07625,119.189229 125.672018,120.677563 C123.267786,122.165897 122.065688,124.329674 122.065688,127.168957 C122.065688,128.909164 122.535079,130.271541 123.473874,131.256132 C124.412669,132.240722 125.683459,132.73301 127.28628,132.73301 C129.942384,132.73301 132.26644,131.714088 134.258518,129.676216 C136.250596,127.638343 137.246621,125.062418 137.246621,121.948365 Z M152.015401,83.68692 L163.693041,83 L163.693041,106.973509 C166.39494,103.172532 169.600535,101.272073 173.309922,101.272073 C177.385668,101.272073 180.694299,102.748936 183.235916,105.702707 C185.777533,108.656478 187.048322,112.652022 187.048322,117.689461 C187.048322,122.63531 185.697393,126.756789 182.995494,130.054022 C180.293595,133.351254 176.721647,134.999846 172.279542,134.999846 C168.61595,134.999846 165.250075,133.259666 162.181817,129.779254 C161.540689,130.832536 160.922467,131.794215 160.327133,132.664318 C159.7318,133.534421 159.090681,134.312922 158.403757,134.999846 L157.029917,134.45031 C157.304687,133.213847 157.533658,131.85147 157.716837,130.363136 C157.900017,128.874801 157.991605,127.489527 157.991605,126.207269 L157.991605,89.8692002 C157.991605,88.7243278 157.579457,87.8313407 156.755149,87.1902121 C155.930841,86.5490836 154.808883,86.2285241 153.389241,86.2285241 L152.015401,86.2285241 L152.015401,83.68692 Z M172.416926,104.363213 C166.600974,104.363213 163.693041,109.308987 163.693041,119.200685 C163.693041,123.64279 164.437197,127.008665 165.925531,129.29841 C167.413866,131.588154 169.486054,132.73301 172.142158,132.73301 C174.798262,132.73301 176.893347,131.450772 178.427476,128.886258 C179.961605,126.321743 180.728658,123.001663 180.728658,118.925917 C180.728658,109.217399 177.958108,104.363213 172.416926,104.363213 Z M197.626891,106.904817 C197.626891,107.087996 198.016141,107.843601 198.794655,109.171653 C199.206809,109.858576 199.412883,110.476798 199.412883,111.026337 C199.412883,113.316082 198.222233,114.460937 195.840898,114.460937 C194.650231,114.460937 193.677104,114.106032 192.921488,113.396211 C192.165873,112.68639 191.78807,111.667469 191.78807,110.339417 C191.78807,107.958082 193.116102,105.862997 195.772206,104.054099 C198.428311,102.2452 201.748391,101.340765 205.732547,101.340765 C209.350344,101.340765 212.201033,102.130715 214.284701,103.710639 C216.368369,105.290563 217.410187,107.339854 217.410187,109.858573 L217.410187,127.512417 C217.410187,130.489086 218.326071,131.977398 220.157867,131.977398 C220.661611,131.977398 221.131002,131.897258 221.566053,131.736976 C222.001105,131.576693 222.470495,131.313377 222.974239,130.947018 L224.279387,132.801702 C222.630771,134.541908 220.799003,135.411998 218.784027,135.411998 C215.624179,135.411998 213.357366,133.488641 211.983519,129.64187 C209.968544,131.748435 208.228364,133.190952 206.762927,133.969466 C204.976926,134.931159 202.801701,135.411998 200.237187,135.411998 C197.077339,135.411998 194.6159,134.725085 192.852796,133.351238 C191.089693,131.977391 190.208154,130.145622 190.208154,127.855877 C190.208154,124.60444 192.097165,121.845339 195.875244,119.578491 C199.653323,117.311644 204.931106,115.788986 211.708751,115.010473 L211.708751,110.202033 C211.708751,108.324442 211.010389,106.790336 209.613645,105.599669 C208.216901,104.409001 206.465272,103.813677 204.358707,103.813677 C202.572706,103.813677 201.004254,104.168582 199.653305,104.878403 C198.302355,105.588224 197.626891,106.263688 197.626891,106.904817 Z M211.708751,121.948365 L211.708751,117.346001 C206.396543,118.078719 202.538381,119.189229 200.134149,120.677563 C197.729917,122.165897 196.527818,124.329674 196.527818,127.168957 C196.527818,128.909164 196.997209,130.271541 197.936005,131.256132 C198.8748,132.240722 200.145589,132.73301 201.748411,132.73301 C204.404515,132.73301 206.728571,131.714088 208.720649,129.676216 C210.712727,127.638343 211.708751,125.062418 211.708751,121.948365 Z M226.820991,122.360517 L229.087828,122.360517 C230.41588,126.069904 231.972883,128.760314 233.758884,130.431828 C235.544885,132.103341 237.903287,132.939086 240.83416,132.939086 C243.1697,132.939086 245.035814,132.401004 246.432558,131.324824 C247.829303,130.248644 248.527664,128.863369 248.527664,127.168957 C248.527664,124.467059 246.856176,122.818467 243.513148,122.223133 L234.65188,120.299757 C232.40793,119.750218 230.633404,118.696952 229.32825,117.139925 C228.023095,115.582899 227.370528,113.796924 227.370528,111.781949 C227.370528,109.034255 228.366552,106.664405 230.35863,104.672327 C232.350708,102.680249 234.995323,101.684225 238.292556,101.684225 C241.131839,101.684225 243.719212,102.554315 246.054752,104.294521 L248.321588,101.890301 L249.76412,101.890301 L250.588424,113.361865 L248.321588,113.361865 C247.359895,110.247812 246.05476,107.935204 244.406144,106.423973 C242.757528,104.912741 240.6052,104.157137 237.949096,104.157137 C235.750941,104.157137 234.022209,104.695219 232.76285,105.771399 C231.50349,106.847579 230.87382,108.164162 230.87382,109.721189 C230.87382,112.468883 235.544829,114.667005 244.886988,116.315621 C247.176733,116.68198 249.031398,117.689453 250.45104,119.338069 C251.870682,120.986685 252.580492,122.932939 252.580492,125.176889 C252.580492,128.153558 251.458534,130.603548 249.214584,132.526934 C246.970634,134.450319 244.15429,135.411998 240.765468,135.411998 C238.979467,135.411998 237.411015,135.171578 236.060066,134.690732 C234.709116,134.209885 233.300944,133.397038 231.835508,132.252166 L229.362596,135.13723 L227.507912,135.13723 L226.820991,122.360517 Z M282.049361,124.696045 L284.316197,125.657733 C280.97317,132.160609 276.141881,135.411998 269.822185,135.411998 C265.47167,135.411998 261.842479,133.866443 258.934503,130.775288 C256.026527,127.684132 254.57256,123.688587 254.57256,118.788533 C254.57256,113.61371 255.992181,109.400642 258.831465,106.149205 C261.670748,102.897767 265.265594,101.272073 269.616109,101.272073 C274.012419,101.272073 277.527125,102.817627 280.160331,105.908783 C282.793538,108.999938 284.110121,113.270248 284.110121,118.719841 L261.029609,118.719841 C261.029609,120.505842 261.144094,122.085742 261.373069,123.459589 C261.602043,124.833436 261.991294,126.024086 262.540833,127.031573 C264.418423,130.557781 267.326356,132.320858 271.264717,132.320858 C275.752617,132.320858 279.347462,129.779279 282.049361,124.696045 Z M261.029609,116.109545 L274.974085,116.109545 C276.714291,116.109545 277.584381,114.96469 277.584381,112.674945 C277.584381,110.110431 276.817328,107.923757 275.283199,106.114859 C273.74907,104.30596 271.882956,103.401525 269.684801,103.401525 C267.120287,103.401525 265.03665,104.523483 263.433829,106.767433 C261.831007,109.011383 261.029609,112.125389 261.029609,116.109545 Z" id="Database" fill="#335FA6"></path>
            </g>
        </g>
    </g>
</svg>