<?xml version="1.0" standalone="no"?>
<!DOCTYPE svg PUBLIC "-//W3C//DTD SVG 20010904//EN"
 "http://www.w3.org/TR/2001/REC-SVG-20010904/DTD/svg10.dtd">
<svg version="1.0" xmlns="http://www.w3.org/2000/svg"
 width="386.000000pt" height="386.000000pt" viewBox="0 0 386.000000 386.000000"
 preserveAspectRatio="xMidYMid meet">
<metadata>
Created by potrace 1.14, written by Peter Selinger 2001-2017
</metadata>
<g transform="translate(0.000000,386.000000) scale(0.100000,-0.100000)"
fill="#000000" stroke="none">
<path d="M1903 3849 c-57 -11 -98 -33 -148 -83 -107 -107 -205 -322 -275 -603
-13 -51 -27 -93 -31 -93 -4 0 -28 14 -53 30 -24 17 -100 59 -168 94 -323 169
-550 205 -671 106 -10 -8 -31 -35 -45 -60 -23 -39 -27 -57 -28 -133 -3 -159
76 -377 225 -620 23 -37 42 -72 44 -78 1 -6 -54 -26 -122 -45 -240 -66 -430
-156 -526 -250 -64 -61 -85 -100 -92 -168 -19 -180 220 -351 644 -461 53 -14
98 -26 100 -28 2 -2 -22 -46 -54 -98 -134 -223 -223 -459 -223 -594 0 -259
206 -331 555 -194 105 42 219 99 328 165 49 30 90 54 92 54 1 0 11 -35 20 -77
43 -192 134 -424 213 -540 71 -105 145 -159 227 -167 184 -18 357 229 470 674
10 36 19 70 21 77 2 8 27 -2 71 -29 298 -181 582 -263 725 -208 28 11 61 29
74 41 59 55 84 171 62 289 -23 131 -115 347 -220 520 -26 41 -45 76 -44 78 2
1 47 14 102 28 340 88 574 209 648 337 112 192 -62 383 -469 516 -66 21 -156
47 -200 57 -44 10 -81 18 -83 19 -1 1 21 40 49 86 135 224 217 439 224 586 12
251 -173 339 -488 232 -103 -35 -239 -98 -357 -167 -47 -27 -88 -48 -92 -46
-4 3 -12 30 -18 62 -20 96 -98 318 -144 411 -105 207 -220 302 -343 280z m96
-99 c22 -10 58 -41 80 -67 84 -96 190 -357 238 -583 13 -58 11 -60 -123 -159
-72 -53 -163 -122 -202 -153 -39 -32 -74 -58 -77 -58 -4 0 -55 38 -113 84 -59
46 -143 109 -187 141 -63 45 -79 62 -77 79 9 56 64 261 92 341 42 119 65 167
115 245 88 137 165 176 254 130z m-1184 -484 c61 -8 184 -50 287 -100 94 -45
303 -166 325 -189 9 -9 9 -25 2 -62 -6 -27 -12 -61 -13 -75 -2 -14 -7 -45 -11
-70 -8 -47 -9 -55 -20 -160 -7 -74 -13 -111 -17 -115 -4 -4 -62 -12 -143 -20
-33 -3 -129 -17 -213 -31 -84 -14 -156 -23 -161 -19 -16 9 -137 218 -184 315
-41 86 -77 182 -93 250 -4 14 -8 57 -9 95 -4 79 13 125 55 157 26 19 100 37
135 32 11 -1 38 -5 60 -8z m2374 -15 c134 -68 88 -320 -125 -689 -68 -116 -90
-146 -103 -137 -11 6 -238 42 -321 50 -151 15 -149 14 -151 75 0 19 -2 42 -3
50 -2 8 -6 42 -10 75 -4 33 -16 118 -28 190 l-20 129 28 23 c16 13 32 23 35
23 4 0 38 19 75 42 86 52 252 130 324 153 139 44 235 49 299 16z m-835 -338
c14 -69 27 -158 40 -268 3 -22 8 -64 12 -94 l6 -53 -88 5 c-49 4 -107 7 -129
7 -33 0 -48 8 -85 43 -25 23 -65 59 -89 79 l-43 37 91 71 c106 84 263 199 273
200 3 0 9 -12 12 -27z m-670 -117 c65 -50 128 -99 140 -109 l21 -17 -40 -37
c-22 -20 -61 -56 -87 -80 l-47 -43 -107 -6 -106 -6 6 59 c9 79 14 120 22 173
4 25 8 54 9 65 1 11 6 44 10 73 l8 53 26 -17 c14 -10 79 -58 145 -108z m281
-226 c24 -19 44 -40 45 -46 0 -6 -36 -10 -100 -10 -55 0 -100 2 -100 4 0 8 95
91 102 89 5 -1 28 -18 53 -37z m314 -297 l157 -158 -1 -187 -1 -188 -70 -72
c-38 -40 -107 -110 -154 -155 l-85 -82 -130 -2 c-72 -1 -166 -1 -211 0 l-81 1
-134 131 -134 132 -1 231 -1 231 136 137 136 137 208 1 209 1 157 -158z m-765
86 c-32 -32 -61 -59 -65 -59 -9 0 1 104 11 110 4 3 32 6 60 7 l53 1 -59 -59z
m901 50 c3 -4 15 -159 12 -159 -2 0 -41 39 -87 86 l-85 86 78 -5 c43 -3 80 -6
82 -8z m165 -13 c25 -3 68 -8 96 -11 28 -3 60 -7 71 -9 11 -3 44 -7 73 -11 68
-9 92 -13 97 -19 7 -7 -108 -164 -245 -335 -13 -16 -21 -9 -135 116 -15 17
-20 40 -23 100 -2 43 -6 99 -8 125 -3 42 6 62 24 53 3 -2 25 -5 50 -9z m-1217
-32 c-2 -20 -5 -66 -7 -101 -3 -70 12 -48 -153 -232 l-33 -36 -21 25 c-11 14
-30 36 -42 50 -30 34 -160 208 -181 242 -16 25 -16 27 1 31 23 7 67 15 118 22
23 3 50 7 60 9 11 2 49 7 85 11 36 4 66 8 67 9 2 2 27 4 57 5 l53 2 -4 -37z
m1847 -81 c348 -94 549 -216 563 -343 15 -135 -210 -278 -589 -374 -169 -43
-164 -43 -199 6 -53 78 -193 262 -229 303 -20 22 -36 45 -36 50 0 6 25 42 56
80 49 60 88 112 221 292 28 38 21 38 213 -14z m-2333 -50 c34 -49 101 -137
149 -196 l87 -109 -19 -23 c-107 -135 -213 -274 -244 -319 -21 -30 -39 -53
-42 -51 -2 2 -19 7 -38 10 -19 3 -68 15 -110 26 -324 87 -529 205 -561 323
-39 144 191 298 601 402 8 2 31 8 50 13 60 15 64 13 127 -76z m473 -309 l0
-136 -47 52 c-83 92 -82 82 -17 155 31 36 58 65 60 65 2 0 4 -61 4 -136z
m1233 -17 c-11 -12 -29 -33 -41 -46 l-22 -25 0 92 0 92 42 -45 41 -46 -20 -22z
m-1364 -101 c20 -22 58 -65 86 -94 35 -38 49 -62 51 -85 1 -18 3 -63 5 -102 3
-57 1 -70 -11 -69 -25 0 -174 16 -193 20 -10 2 -51 8 -90 14 -40 5 -81 12 -92
14 -11 3 -30 5 -42 5 -13 1 -23 5 -23 9 0 9 125 178 205 279 27 34 53 59 58
56 5 -3 26 -24 46 -47z m1603 -154 c55 -73 98 -136 95 -139 -13 -12 -206 -41
-379 -57 -36 -4 -38 -2 -33 23 2 14 5 70 7 125 l3 98 70 80 70 80 34 -39 c18
-21 78 -98 133 -171z m-398 -119 c-3 -43 -9 -81 -13 -85 -5 -5 -117 -13 -146
-9 -8 1 153 171 162 171 2 0 1 -35 -3 -77z m-897 -49 c18 -17 33 -34 33 -38 0
-4 -25 -6 -55 -5 -48 2 -55 5 -56 23 0 12 -2 39 -4 60 l-4 39 26 -24 c15 -13
42 -38 60 -55z m-574 -63 c214 -35 244 -39 339 -47 40 -3 74 -7 75 -8 4 -3 12
-62 18 -126 3 -36 8 -76 10 -90 2 -14 7 -45 10 -70 5 -41 22 -140 30 -182 2
-11 -9 -25 -29 -37 -17 -10 -56 -34 -87 -53 -159 -98 -362 -188 -479 -213
-127 -27 -203 -9 -254 58 -31 42 -31 150 0 257 46 160 248 536 283 526 9 -2
46 -9 84 -15z m2081 -76 c67 -108 169 -315 194 -395 62 -192 47 -299 -47 -347
-111 -56 -344 12 -649 191 l-104 61 6 40 c8 52 15 98 26 165 5 30 12 80 15
110 3 30 8 64 10 75 2 11 4 38 4 60 1 22 5 45 9 52 4 6 39 14 77 17 39 3 79 8
90 10 11 2 47 7 80 11 32 4 66 8 75 10 8 1 37 6 65 9 27 4 52 9 54 12 19 18
50 -9 95 -81z m-1429 6 c58 -1 62 -3 120 -55 33 -29 74 -65 90 -80 l30 -26
-35 -31 c-48 -42 -283 -219 -291 -219 -3 0 -9 19 -13 43 -3 23 -11 74 -16 112
-13 84 -16 110 -25 199 l-8 68 44 -5 c24 -3 71 -6 104 -6z m801 -39 c-3 -26
-8 -69 -11 -97 -11 -94 -43 -297 -48 -301 -3 -4 -197 138 -290 211 l-77 60 43
39 c140 130 121 119 211 124 44 2 85 4 89 5 5 2 27 3 49 4 l40 2 -6 -47z
m-411 29 l29 -1 -49 -45 c-28 -24 -54 -44 -59 -45 -10 0 -106 79 -106 88 0 6
30 7 185 3z m-10 -266 c41 -35 224 -172 324 -243 l23 -17 -35 -135 c-187 -710
-464 -788 -670 -188 -50 144 -95 336 -83 352 6 8 66 55 132 104 67 50 130 97
140 106 67 55 98 75 108 69 6 -4 34 -25 61 -48z"/>
</g>
</svg>
